M48
; DRILL file KiCad 10.0.0 date 2026-07-18T09:54:26
; FORMAT={-:-/ absolute / metric / decimal}
; #@! TF.CreationDate,2026-07-18T09:54:26+09:00
; #@! TF.GenerationSoftware,Kicad,Pcbnew,10.0.0
; #@! TF.FileFunction,NonPlated,1,2,NPTH
FMAT,2
METRIC
; #@! TA.AperFunction,NonPlated,NPTH,ComponentDrill
T1C1.750
; #@! TA.AperFunction,NonPlated,NPTH,ComponentDrill
T2C3.050
; #@! TA.AperFunction,NonPlated,NPTH,ComponentDrill
T3C3.200
; #@! TA.AperFunction,NonPlated,NPTH,ComponentDrill
T4C4.000
%
G90
G05
T1
X82.17Y-74.75
X82.17Y-94.25
X82.17Y-113.75
X82.17Y-133.25
X92.33Y-74.75
X92.33Y-94.25
X92.33Y-113.75
X92.33Y-133.25
T2
X84.71Y-79.83
X84.71Y-99.33
X84.71Y-118.83
X84.71Y-138.33
X91.06Y-77.29
X91.06Y-96.79
X91.06Y-116.29
X91.06Y-135.79
T3
X75.5Y-44.0
X76.0Y-152.0
X106.5Y-152.0
X106.75Y-44.0
T4
X87.25Y-74.75
X87.25Y-94.25
X87.25Y-113.75
X87.25Y-133.25
M30
