%TF.GenerationSoftware,KiCad,Pcbnew,10.0.0*%
%TF.CreationDate,2026-07-18T09:54:23+09:00*%
%TF.ProjectId,Wireless_1,57697265-6c65-4737-935f-312e6b696361,rev?*%
%TF.SameCoordinates,Original*%
%TF.FileFunction,Legend,Top*%
%TF.FilePolarity,Positive*%
%FSLAX46Y46*%
G04 Gerber Fmt 4.6, Leading zero omitted, Abs format (unit mm)*
G04 Created by KiCad (PCBNEW 10.0.0) date 2026-07-18 09:54:23*
%MOMM*%
%LPD*%
G01*
G04 APERTURE LIST*
%ADD10C,0.100000*%
%ADD11C,0.150000*%
%ADD12C,0.101600*%
%ADD13C,0.120000*%
%ADD14C,0.127000*%
%ADD15C,0.504000*%
G04 APERTURE END LIST*
D10*
X79857142Y-153372419D02*
X79857142Y-152372419D01*
X79857142Y-152372419D02*
X80238094Y-152372419D01*
X80238094Y-152372419D02*
X80333332Y-152420038D01*
X80333332Y-152420038D02*
X80380951Y-152467657D01*
X80380951Y-152467657D02*
X80428570Y-152562895D01*
X80428570Y-152562895D02*
X80428570Y-152705752D01*
X80428570Y-152705752D02*
X80380951Y-152800990D01*
X80380951Y-152800990D02*
X80333332Y-152848609D01*
X80333332Y-152848609D02*
X80238094Y-152896228D01*
X80238094Y-152896228D02*
X79857142Y-152896228D01*
X81238094Y-153324800D02*
X81142856Y-153372419D01*
X81142856Y-153372419D02*
X80952380Y-153372419D01*
X80952380Y-153372419D02*
X80857142Y-153324800D01*
X80857142Y-153324800D02*
X80809523Y-153229561D01*
X80809523Y-153229561D02*
X80809523Y-152848609D01*
X80809523Y-152848609D02*
X80857142Y-152753371D01*
X80857142Y-152753371D02*
X80952380Y-152705752D01*
X80952380Y-152705752D02*
X81142856Y-152705752D01*
X81142856Y-152705752D02*
X81238094Y-152753371D01*
X81238094Y-152753371D02*
X81285713Y-152848609D01*
X81285713Y-152848609D02*
X81285713Y-152943847D01*
X81285713Y-152943847D02*
X80809523Y-153039085D01*
X82142856Y-153372419D02*
X82142856Y-152848609D01*
X82142856Y-152848609D02*
X82095237Y-152753371D01*
X82095237Y-152753371D02*
X81999999Y-152705752D01*
X81999999Y-152705752D02*
X81809523Y-152705752D01*
X81809523Y-152705752D02*
X81714285Y-152753371D01*
X82142856Y-153324800D02*
X82047618Y-153372419D01*
X82047618Y-153372419D02*
X81809523Y-153372419D01*
X81809523Y-153372419D02*
X81714285Y-153324800D01*
X81714285Y-153324800D02*
X81666666Y-153229561D01*
X81666666Y-153229561D02*
X81666666Y-153134323D01*
X81666666Y-153134323D02*
X81714285Y-153039085D01*
X81714285Y-153039085D02*
X81809523Y-152991466D01*
X81809523Y-152991466D02*
X82047618Y-152991466D01*
X82047618Y-152991466D02*
X82142856Y-152943847D01*
X82619047Y-153372419D02*
X82619047Y-152372419D01*
X82714285Y-152991466D02*
X82999999Y-153372419D01*
X82999999Y-152705752D02*
X82619047Y-153086704D01*
X83333333Y-152705752D02*
X83571428Y-153372419D01*
X83809523Y-152705752D02*
X83571428Y-153372419D01*
X83571428Y-153372419D02*
X83476190Y-153610514D01*
X83476190Y-153610514D02*
X83428571Y-153658133D01*
X83428571Y-153658133D02*
X83333333Y-153705752D01*
X85095238Y-152800990D02*
X85000000Y-152753371D01*
X85000000Y-152753371D02*
X84952381Y-152705752D01*
X84952381Y-152705752D02*
X84904762Y-152610514D01*
X84904762Y-152610514D02*
X84904762Y-152562895D01*
X84904762Y-152562895D02*
X84952381Y-152467657D01*
X84952381Y-152467657D02*
X85000000Y-152420038D01*
X85000000Y-152420038D02*
X85095238Y-152372419D01*
X85095238Y-152372419D02*
X85285714Y-152372419D01*
X85285714Y-152372419D02*
X85380952Y-152420038D01*
X85380952Y-152420038D02*
X85428571Y-152467657D01*
X85428571Y-152467657D02*
X85476190Y-152562895D01*
X85476190Y-152562895D02*
X85476190Y-152610514D01*
X85476190Y-152610514D02*
X85428571Y-152705752D01*
X85428571Y-152705752D02*
X85380952Y-152753371D01*
X85380952Y-152753371D02*
X85285714Y-152800990D01*
X85285714Y-152800990D02*
X85095238Y-152800990D01*
X85095238Y-152800990D02*
X85000000Y-152848609D01*
X85000000Y-152848609D02*
X84952381Y-152896228D01*
X84952381Y-152896228D02*
X84904762Y-152991466D01*
X84904762Y-152991466D02*
X84904762Y-153181942D01*
X84904762Y-153181942D02*
X84952381Y-153277180D01*
X84952381Y-153277180D02*
X85000000Y-153324800D01*
X85000000Y-153324800D02*
X85095238Y-153372419D01*
X85095238Y-153372419D02*
X85285714Y-153372419D01*
X85285714Y-153372419D02*
X85380952Y-153324800D01*
X85380952Y-153324800D02*
X85428571Y-153277180D01*
X85428571Y-153277180D02*
X85476190Y-153181942D01*
X85476190Y-153181942D02*
X85476190Y-152991466D01*
X85476190Y-152991466D02*
X85428571Y-152896228D01*
X85428571Y-152896228D02*
X85380952Y-152848609D01*
X85380952Y-152848609D02*
X85285714Y-152800990D01*
X85904762Y-152991466D02*
X86666667Y-152991466D01*
X87142857Y-153372419D02*
X87142857Y-152372419D01*
X87142857Y-152753371D02*
X87238095Y-152705752D01*
X87238095Y-152705752D02*
X87428571Y-152705752D01*
X87428571Y-152705752D02*
X87523809Y-152753371D01*
X87523809Y-152753371D02*
X87571428Y-152800990D01*
X87571428Y-152800990D02*
X87619047Y-152896228D01*
X87619047Y-152896228D02*
X87619047Y-153181942D01*
X87619047Y-153181942D02*
X87571428Y-153277180D01*
X87571428Y-153277180D02*
X87523809Y-153324800D01*
X87523809Y-153324800D02*
X87428571Y-153372419D01*
X87428571Y-153372419D02*
X87238095Y-153372419D01*
X87238095Y-153372419D02*
X87142857Y-153324800D01*
X88047619Y-153372419D02*
X88047619Y-152705752D01*
X88047619Y-152372419D02*
X88000000Y-152420038D01*
X88000000Y-152420038D02*
X88047619Y-152467657D01*
X88047619Y-152467657D02*
X88095238Y-152420038D01*
X88095238Y-152420038D02*
X88047619Y-152372419D01*
X88047619Y-152372419D02*
X88047619Y-152467657D01*
X88380952Y-152705752D02*
X88761904Y-152705752D01*
X88523809Y-152372419D02*
X88523809Y-153229561D01*
X88523809Y-153229561D02*
X88571428Y-153324800D01*
X88571428Y-153324800D02*
X88666666Y-153372419D01*
X88666666Y-153372419D02*
X88761904Y-153372419D01*
X89761905Y-152705752D02*
X90000000Y-153372419D01*
X90000000Y-153372419D02*
X90238095Y-152705752D01*
X90571429Y-152467657D02*
X90619048Y-152420038D01*
X90619048Y-152420038D02*
X90714286Y-152372419D01*
X90714286Y-152372419D02*
X90952381Y-152372419D01*
X90952381Y-152372419D02*
X91047619Y-152420038D01*
X91047619Y-152420038D02*
X91095238Y-152467657D01*
X91095238Y-152467657D02*
X91142857Y-152562895D01*
X91142857Y-152562895D02*
X91142857Y-152658133D01*
X91142857Y-152658133D02*
X91095238Y-152800990D01*
X91095238Y-152800990D02*
X90523810Y-153372419D01*
X90523810Y-153372419D02*
X91142857Y-153372419D01*
X91571429Y-153277180D02*
X91619048Y-153324800D01*
X91619048Y-153324800D02*
X91571429Y-153372419D01*
X91571429Y-153372419D02*
X91523810Y-153324800D01*
X91523810Y-153324800D02*
X91571429Y-153277180D01*
X91571429Y-153277180D02*
X91571429Y-153372419D01*
X92000000Y-152467657D02*
X92047619Y-152420038D01*
X92047619Y-152420038D02*
X92142857Y-152372419D01*
X92142857Y-152372419D02*
X92380952Y-152372419D01*
X92380952Y-152372419D02*
X92476190Y-152420038D01*
X92476190Y-152420038D02*
X92523809Y-152467657D01*
X92523809Y-152467657D02*
X92571428Y-152562895D01*
X92571428Y-152562895D02*
X92571428Y-152658133D01*
X92571428Y-152658133D02*
X92523809Y-152800990D01*
X92523809Y-152800990D02*
X91952381Y-153372419D01*
X91952381Y-153372419D02*
X92571428Y-153372419D01*
X93714286Y-152467657D02*
X93761905Y-152420038D01*
X93761905Y-152420038D02*
X93857143Y-152372419D01*
X93857143Y-152372419D02*
X94095238Y-152372419D01*
X94095238Y-152372419D02*
X94190476Y-152420038D01*
X94190476Y-152420038D02*
X94238095Y-152467657D01*
X94238095Y-152467657D02*
X94285714Y-152562895D01*
X94285714Y-152562895D02*
X94285714Y-152658133D01*
X94285714Y-152658133D02*
X94238095Y-152800990D01*
X94238095Y-152800990D02*
X93666667Y-153372419D01*
X93666667Y-153372419D02*
X94285714Y-153372419D01*
X94904762Y-152372419D02*
X95000000Y-152372419D01*
X95000000Y-152372419D02*
X95095238Y-152420038D01*
X95095238Y-152420038D02*
X95142857Y-152467657D01*
X95142857Y-152467657D02*
X95190476Y-152562895D01*
X95190476Y-152562895D02*
X95238095Y-152753371D01*
X95238095Y-152753371D02*
X95238095Y-152991466D01*
X95238095Y-152991466D02*
X95190476Y-153181942D01*
X95190476Y-153181942D02*
X95142857Y-153277180D01*
X95142857Y-153277180D02*
X95095238Y-153324800D01*
X95095238Y-153324800D02*
X95000000Y-153372419D01*
X95000000Y-153372419D02*
X94904762Y-153372419D01*
X94904762Y-153372419D02*
X94809524Y-153324800D01*
X94809524Y-153324800D02*
X94761905Y-153277180D01*
X94761905Y-153277180D02*
X94714286Y-153181942D01*
X94714286Y-153181942D02*
X94666667Y-152991466D01*
X94666667Y-152991466D02*
X94666667Y-152753371D01*
X94666667Y-152753371D02*
X94714286Y-152562895D01*
X94714286Y-152562895D02*
X94761905Y-152467657D01*
X94761905Y-152467657D02*
X94809524Y-152420038D01*
X94809524Y-152420038D02*
X94904762Y-152372419D01*
X95619048Y-152467657D02*
X95666667Y-152420038D01*
X95666667Y-152420038D02*
X95761905Y-152372419D01*
X95761905Y-152372419D02*
X96000000Y-152372419D01*
X96000000Y-152372419D02*
X96095238Y-152420038D01*
X96095238Y-152420038D02*
X96142857Y-152467657D01*
X96142857Y-152467657D02*
X96190476Y-152562895D01*
X96190476Y-152562895D02*
X96190476Y-152658133D01*
X96190476Y-152658133D02*
X96142857Y-152800990D01*
X96142857Y-152800990D02*
X95571429Y-153372419D01*
X95571429Y-153372419D02*
X96190476Y-153372419D01*
X97047619Y-152372419D02*
X96857143Y-152372419D01*
X96857143Y-152372419D02*
X96761905Y-152420038D01*
X96761905Y-152420038D02*
X96714286Y-152467657D01*
X96714286Y-152467657D02*
X96619048Y-152610514D01*
X96619048Y-152610514D02*
X96571429Y-152800990D01*
X96571429Y-152800990D02*
X96571429Y-153181942D01*
X96571429Y-153181942D02*
X96619048Y-153277180D01*
X96619048Y-153277180D02*
X96666667Y-153324800D01*
X96666667Y-153324800D02*
X96761905Y-153372419D01*
X96761905Y-153372419D02*
X96952381Y-153372419D01*
X96952381Y-153372419D02*
X97047619Y-153324800D01*
X97047619Y-153324800D02*
X97095238Y-153277180D01*
X97095238Y-153277180D02*
X97142857Y-153181942D01*
X97142857Y-153181942D02*
X97142857Y-152943847D01*
X97142857Y-152943847D02*
X97095238Y-152848609D01*
X97095238Y-152848609D02*
X97047619Y-152800990D01*
X97047619Y-152800990D02*
X96952381Y-152753371D01*
X96952381Y-152753371D02*
X96761905Y-152753371D01*
X96761905Y-152753371D02*
X96666667Y-152800990D01*
X96666667Y-152800990D02*
X96619048Y-152848609D01*
X96619048Y-152848609D02*
X96571429Y-152943847D01*
X97571429Y-152991466D02*
X98333334Y-152991466D01*
X99000000Y-152372419D02*
X99095238Y-152372419D01*
X99095238Y-152372419D02*
X99190476Y-152420038D01*
X99190476Y-152420038D02*
X99238095Y-152467657D01*
X99238095Y-152467657D02*
X99285714Y-152562895D01*
X99285714Y-152562895D02*
X99333333Y-152753371D01*
X99333333Y-152753371D02*
X99333333Y-152991466D01*
X99333333Y-152991466D02*
X99285714Y-153181942D01*
X99285714Y-153181942D02*
X99238095Y-153277180D01*
X99238095Y-153277180D02*
X99190476Y-153324800D01*
X99190476Y-153324800D02*
X99095238Y-153372419D01*
X99095238Y-153372419D02*
X99000000Y-153372419D01*
X99000000Y-153372419D02*
X98904762Y-153324800D01*
X98904762Y-153324800D02*
X98857143Y-153277180D01*
X98857143Y-153277180D02*
X98809524Y-153181942D01*
X98809524Y-153181942D02*
X98761905Y-152991466D01*
X98761905Y-152991466D02*
X98761905Y-152753371D01*
X98761905Y-152753371D02*
X98809524Y-152562895D01*
X98809524Y-152562895D02*
X98857143Y-152467657D01*
X98857143Y-152467657D02*
X98904762Y-152420038D01*
X98904762Y-152420038D02*
X99000000Y-152372419D01*
X99666667Y-152372419D02*
X100333333Y-152372419D01*
X100333333Y-152372419D02*
X99904762Y-153372419D01*
X101238095Y-153372419D02*
X100666667Y-153372419D01*
X100952381Y-153372419D02*
X100952381Y-152372419D01*
X100952381Y-152372419D02*
X100857143Y-152515276D01*
X100857143Y-152515276D02*
X100761905Y-152610514D01*
X100761905Y-152610514D02*
X100666667Y-152658133D01*
X101809524Y-152800990D02*
X101714286Y-152753371D01*
X101714286Y-152753371D02*
X101666667Y-152705752D01*
X101666667Y-152705752D02*
X101619048Y-152610514D01*
X101619048Y-152610514D02*
X101619048Y-152562895D01*
X101619048Y-152562895D02*
X101666667Y-152467657D01*
X101666667Y-152467657D02*
X101714286Y-152420038D01*
X101714286Y-152420038D02*
X101809524Y-152372419D01*
X101809524Y-152372419D02*
X102000000Y-152372419D01*
X102000000Y-152372419D02*
X102095238Y-152420038D01*
X102095238Y-152420038D02*
X102142857Y-152467657D01*
X102142857Y-152467657D02*
X102190476Y-152562895D01*
X102190476Y-152562895D02*
X102190476Y-152610514D01*
X102190476Y-152610514D02*
X102142857Y-152705752D01*
X102142857Y-152705752D02*
X102095238Y-152753371D01*
X102095238Y-152753371D02*
X102000000Y-152800990D01*
X102000000Y-152800990D02*
X101809524Y-152800990D01*
X101809524Y-152800990D02*
X101714286Y-152848609D01*
X101714286Y-152848609D02*
X101666667Y-152896228D01*
X101666667Y-152896228D02*
X101619048Y-152991466D01*
X101619048Y-152991466D02*
X101619048Y-153181942D01*
X101619048Y-153181942D02*
X101666667Y-153277180D01*
X101666667Y-153277180D02*
X101714286Y-153324800D01*
X101714286Y-153324800D02*
X101809524Y-153372419D01*
X101809524Y-153372419D02*
X102000000Y-153372419D01*
X102000000Y-153372419D02*
X102095238Y-153324800D01*
X102095238Y-153324800D02*
X102142857Y-153277180D01*
X102142857Y-153277180D02*
X102190476Y-153181942D01*
X102190476Y-153181942D02*
X102190476Y-152991466D01*
X102190476Y-152991466D02*
X102142857Y-152896228D01*
X102142857Y-152896228D02*
X102095238Y-152848609D01*
X102095238Y-152848609D02*
X102000000Y-152800990D01*
D11*
X85916667Y-141657200D02*
X86059524Y-141704819D01*
X86059524Y-141704819D02*
X86297619Y-141704819D01*
X86297619Y-141704819D02*
X86392857Y-141657200D01*
X86392857Y-141657200D02*
X86440476Y-141609580D01*
X86440476Y-141609580D02*
X86488095Y-141514342D01*
X86488095Y-141514342D02*
X86488095Y-141419104D01*
X86488095Y-141419104D02*
X86440476Y-141323866D01*
X86440476Y-141323866D02*
X86392857Y-141276247D01*
X86392857Y-141276247D02*
X86297619Y-141228628D01*
X86297619Y-141228628D02*
X86107143Y-141181009D01*
X86107143Y-141181009D02*
X86011905Y-141133390D01*
X86011905Y-141133390D02*
X85964286Y-141085771D01*
X85964286Y-141085771D02*
X85916667Y-140990533D01*
X85916667Y-140990533D02*
X85916667Y-140895295D01*
X85916667Y-140895295D02*
X85964286Y-140800057D01*
X85964286Y-140800057D02*
X86011905Y-140752438D01*
X86011905Y-140752438D02*
X86107143Y-140704819D01*
X86107143Y-140704819D02*
X86345238Y-140704819D01*
X86345238Y-140704819D02*
X86488095Y-140752438D01*
X86821429Y-140704819D02*
X87059524Y-141704819D01*
X87059524Y-141704819D02*
X87250000Y-140990533D01*
X87250000Y-140990533D02*
X87440476Y-141704819D01*
X87440476Y-141704819D02*
X87678572Y-140704819D01*
X88488095Y-141038152D02*
X88488095Y-141704819D01*
X88250000Y-140657200D02*
X88011905Y-141371485D01*
X88011905Y-141371485D02*
X88630952Y-141371485D01*
X85916667Y-102657200D02*
X86059524Y-102704819D01*
X86059524Y-102704819D02*
X86297619Y-102704819D01*
X86297619Y-102704819D02*
X86392857Y-102657200D01*
X86392857Y-102657200D02*
X86440476Y-102609580D01*
X86440476Y-102609580D02*
X86488095Y-102514342D01*
X86488095Y-102514342D02*
X86488095Y-102419104D01*
X86488095Y-102419104D02*
X86440476Y-102323866D01*
X86440476Y-102323866D02*
X86392857Y-102276247D01*
X86392857Y-102276247D02*
X86297619Y-102228628D01*
X86297619Y-102228628D02*
X86107143Y-102181009D01*
X86107143Y-102181009D02*
X86011905Y-102133390D01*
X86011905Y-102133390D02*
X85964286Y-102085771D01*
X85964286Y-102085771D02*
X85916667Y-101990533D01*
X85916667Y-101990533D02*
X85916667Y-101895295D01*
X85916667Y-101895295D02*
X85964286Y-101800057D01*
X85964286Y-101800057D02*
X86011905Y-101752438D01*
X86011905Y-101752438D02*
X86107143Y-101704819D01*
X86107143Y-101704819D02*
X86345238Y-101704819D01*
X86345238Y-101704819D02*
X86488095Y-101752438D01*
X86821429Y-101704819D02*
X87059524Y-102704819D01*
X87059524Y-102704819D02*
X87250000Y-101990533D01*
X87250000Y-101990533D02*
X87440476Y-102704819D01*
X87440476Y-102704819D02*
X87678572Y-101704819D01*
X88011905Y-101800057D02*
X88059524Y-101752438D01*
X88059524Y-101752438D02*
X88154762Y-101704819D01*
X88154762Y-101704819D02*
X88392857Y-101704819D01*
X88392857Y-101704819D02*
X88488095Y-101752438D01*
X88488095Y-101752438D02*
X88535714Y-101800057D01*
X88535714Y-101800057D02*
X88583333Y-101895295D01*
X88583333Y-101895295D02*
X88583333Y-101990533D01*
X88583333Y-101990533D02*
X88535714Y-102133390D01*
X88535714Y-102133390D02*
X87964286Y-102704819D01*
X87964286Y-102704819D02*
X88583333Y-102704819D01*
X85916667Y-83157200D02*
X86059524Y-83204819D01*
X86059524Y-83204819D02*
X86297619Y-83204819D01*
X86297619Y-83204819D02*
X86392857Y-83157200D01*
X86392857Y-83157200D02*
X86440476Y-83109580D01*
X86440476Y-83109580D02*
X86488095Y-83014342D01*
X86488095Y-83014342D02*
X86488095Y-82919104D01*
X86488095Y-82919104D02*
X86440476Y-82823866D01*
X86440476Y-82823866D02*
X86392857Y-82776247D01*
X86392857Y-82776247D02*
X86297619Y-82728628D01*
X86297619Y-82728628D02*
X86107143Y-82681009D01*
X86107143Y-82681009D02*
X86011905Y-82633390D01*
X86011905Y-82633390D02*
X85964286Y-82585771D01*
X85964286Y-82585771D02*
X85916667Y-82490533D01*
X85916667Y-82490533D02*
X85916667Y-82395295D01*
X85916667Y-82395295D02*
X85964286Y-82300057D01*
X85964286Y-82300057D02*
X86011905Y-82252438D01*
X86011905Y-82252438D02*
X86107143Y-82204819D01*
X86107143Y-82204819D02*
X86345238Y-82204819D01*
X86345238Y-82204819D02*
X86488095Y-82252438D01*
X86821429Y-82204819D02*
X87059524Y-83204819D01*
X87059524Y-83204819D02*
X87250000Y-82490533D01*
X87250000Y-82490533D02*
X87440476Y-83204819D01*
X87440476Y-83204819D02*
X87678572Y-82204819D01*
X88583333Y-83204819D02*
X88011905Y-83204819D01*
X88297619Y-83204819D02*
X88297619Y-82204819D01*
X88297619Y-82204819D02*
X88202381Y-82347676D01*
X88202381Y-82347676D02*
X88107143Y-82442914D01*
X88107143Y-82442914D02*
X88011905Y-82490533D01*
X103511905Y-55454819D02*
X103511905Y-54454819D01*
X103511905Y-54454819D02*
X103750000Y-54454819D01*
X103750000Y-54454819D02*
X103892857Y-54502438D01*
X103892857Y-54502438D02*
X103988095Y-54597676D01*
X103988095Y-54597676D02*
X104035714Y-54692914D01*
X104035714Y-54692914D02*
X104083333Y-54883390D01*
X104083333Y-54883390D02*
X104083333Y-55026247D01*
X104083333Y-55026247D02*
X104035714Y-55216723D01*
X104035714Y-55216723D02*
X103988095Y-55311961D01*
X103988095Y-55311961D02*
X103892857Y-55407200D01*
X103892857Y-55407200D02*
X103750000Y-55454819D01*
X103750000Y-55454819D02*
X103511905Y-55454819D01*
X105035714Y-55454819D02*
X104464286Y-55454819D01*
X104750000Y-55454819D02*
X104750000Y-54454819D01*
X104750000Y-54454819D02*
X104654762Y-54597676D01*
X104654762Y-54597676D02*
X104559524Y-54692914D01*
X104559524Y-54692914D02*
X104464286Y-54740533D01*
X100416666Y-78834819D02*
X100416666Y-79549104D01*
X100416666Y-79549104D02*
X100369047Y-79691961D01*
X100369047Y-79691961D02*
X100273809Y-79787200D01*
X100273809Y-79787200D02*
X100130952Y-79834819D01*
X100130952Y-79834819D02*
X100035714Y-79834819D01*
X101416666Y-79834819D02*
X100845238Y-79834819D01*
X101130952Y-79834819D02*
X101130952Y-78834819D01*
X101130952Y-78834819D02*
X101035714Y-78977676D01*
X101035714Y-78977676D02*
X100940476Y-79072914D01*
X100940476Y-79072914D02*
X100845238Y-79120533D01*
X100916667Y-90697200D02*
X101059524Y-90744819D01*
X101059524Y-90744819D02*
X101297619Y-90744819D01*
X101297619Y-90744819D02*
X101392857Y-90697200D01*
X101392857Y-90697200D02*
X101440476Y-90649580D01*
X101440476Y-90649580D02*
X101488095Y-90554342D01*
X101488095Y-90554342D02*
X101488095Y-90459104D01*
X101488095Y-90459104D02*
X101440476Y-90363866D01*
X101440476Y-90363866D02*
X101392857Y-90316247D01*
X101392857Y-90316247D02*
X101297619Y-90268628D01*
X101297619Y-90268628D02*
X101107143Y-90221009D01*
X101107143Y-90221009D02*
X101011905Y-90173390D01*
X101011905Y-90173390D02*
X100964286Y-90125771D01*
X100964286Y-90125771D02*
X100916667Y-90030533D01*
X100916667Y-90030533D02*
X100916667Y-89935295D01*
X100916667Y-89935295D02*
X100964286Y-89840057D01*
X100964286Y-89840057D02*
X101011905Y-89792438D01*
X101011905Y-89792438D02*
X101107143Y-89744819D01*
X101107143Y-89744819D02*
X101345238Y-89744819D01*
X101345238Y-89744819D02*
X101488095Y-89792438D01*
X101821429Y-89744819D02*
X102059524Y-90744819D01*
X102059524Y-90744819D02*
X102250000Y-90030533D01*
X102250000Y-90030533D02*
X102440476Y-90744819D01*
X102440476Y-90744819D02*
X102678572Y-89744819D01*
X103535714Y-89744819D02*
X103059524Y-89744819D01*
X103059524Y-89744819D02*
X103011905Y-90221009D01*
X103011905Y-90221009D02*
X103059524Y-90173390D01*
X103059524Y-90173390D02*
X103154762Y-90125771D01*
X103154762Y-90125771D02*
X103392857Y-90125771D01*
X103392857Y-90125771D02*
X103488095Y-90173390D01*
X103488095Y-90173390D02*
X103535714Y-90221009D01*
X103535714Y-90221009D02*
X103583333Y-90316247D01*
X103583333Y-90316247D02*
X103583333Y-90554342D01*
X103583333Y-90554342D02*
X103535714Y-90649580D01*
X103535714Y-90649580D02*
X103488095Y-90697200D01*
X103488095Y-90697200D02*
X103392857Y-90744819D01*
X103392857Y-90744819D02*
X103154762Y-90744819D01*
X103154762Y-90744819D02*
X103059524Y-90697200D01*
X103059524Y-90697200D02*
X103011905Y-90649580D01*
X101833333Y-46109580D02*
X101785714Y-46157200D01*
X101785714Y-46157200D02*
X101642857Y-46204819D01*
X101642857Y-46204819D02*
X101547619Y-46204819D01*
X101547619Y-46204819D02*
X101404762Y-46157200D01*
X101404762Y-46157200D02*
X101309524Y-46061961D01*
X101309524Y-46061961D02*
X101261905Y-45966723D01*
X101261905Y-45966723D02*
X101214286Y-45776247D01*
X101214286Y-45776247D02*
X101214286Y-45633390D01*
X101214286Y-45633390D02*
X101261905Y-45442914D01*
X101261905Y-45442914D02*
X101309524Y-45347676D01*
X101309524Y-45347676D02*
X101404762Y-45252438D01*
X101404762Y-45252438D02*
X101547619Y-45204819D01*
X101547619Y-45204819D02*
X101642857Y-45204819D01*
X101642857Y-45204819D02*
X101785714Y-45252438D01*
X101785714Y-45252438D02*
X101833333Y-45300057D01*
X102214286Y-45300057D02*
X102261905Y-45252438D01*
X102261905Y-45252438D02*
X102357143Y-45204819D01*
X102357143Y-45204819D02*
X102595238Y-45204819D01*
X102595238Y-45204819D02*
X102690476Y-45252438D01*
X102690476Y-45252438D02*
X102738095Y-45300057D01*
X102738095Y-45300057D02*
X102785714Y-45395295D01*
X102785714Y-45395295D02*
X102785714Y-45490533D01*
X102785714Y-45490533D02*
X102738095Y-45633390D01*
X102738095Y-45633390D02*
X102166667Y-46204819D01*
X102166667Y-46204819D02*
X102785714Y-46204819D01*
X102714285Y-96051009D02*
X102857142Y-96098628D01*
X102857142Y-96098628D02*
X102904761Y-96146247D01*
X102904761Y-96146247D02*
X102952380Y-96241485D01*
X102952380Y-96241485D02*
X102952380Y-96384342D01*
X102952380Y-96384342D02*
X102904761Y-96479580D01*
X102904761Y-96479580D02*
X102857142Y-96527200D01*
X102857142Y-96527200D02*
X102761904Y-96574819D01*
X102761904Y-96574819D02*
X102380952Y-96574819D01*
X102380952Y-96574819D02*
X102380952Y-95574819D01*
X102380952Y-95574819D02*
X102714285Y-95574819D01*
X102714285Y-95574819D02*
X102809523Y-95622438D01*
X102809523Y-95622438D02*
X102857142Y-95670057D01*
X102857142Y-95670057D02*
X102904761Y-95765295D01*
X102904761Y-95765295D02*
X102904761Y-95860533D01*
X102904761Y-95860533D02*
X102857142Y-95955771D01*
X102857142Y-95955771D02*
X102809523Y-96003390D01*
X102809523Y-96003390D02*
X102714285Y-96051009D01*
X102714285Y-96051009D02*
X102380952Y-96051009D01*
X103238095Y-95574819D02*
X103809523Y-95574819D01*
X103523809Y-96574819D02*
X103523809Y-95574819D01*
X104666666Y-96574819D02*
X104095238Y-96574819D01*
X104380952Y-96574819D02*
X104380952Y-95574819D01*
X104380952Y-95574819D02*
X104285714Y-95717676D01*
X104285714Y-95717676D02*
X104190476Y-95812914D01*
X104190476Y-95812914D02*
X104095238Y-95860533D01*
D12*
X77418479Y-54907309D02*
X77932526Y-54907309D01*
X77932526Y-54907309D02*
X77993002Y-54877071D01*
X77993002Y-54877071D02*
X78023241Y-54846833D01*
X78023241Y-54846833D02*
X78053479Y-54786357D01*
X78053479Y-54786357D02*
X78053479Y-54665404D01*
X78053479Y-54665404D02*
X78023241Y-54604928D01*
X78023241Y-54604928D02*
X77993002Y-54574690D01*
X77993002Y-54574690D02*
X77932526Y-54544452D01*
X77932526Y-54544452D02*
X77418479Y-54544452D01*
X78053479Y-53909452D02*
X78053479Y-54272309D01*
X78053479Y-54090881D02*
X77418479Y-54090881D01*
X77418479Y-54090881D02*
X77509193Y-54151357D01*
X77509193Y-54151357D02*
X77569669Y-54211833D01*
X77569669Y-54211833D02*
X77599907Y-54272309D01*
D11*
X101833333Y-44359580D02*
X101785714Y-44407200D01*
X101785714Y-44407200D02*
X101642857Y-44454819D01*
X101642857Y-44454819D02*
X101547619Y-44454819D01*
X101547619Y-44454819D02*
X101404762Y-44407200D01*
X101404762Y-44407200D02*
X101309524Y-44311961D01*
X101309524Y-44311961D02*
X101261905Y-44216723D01*
X101261905Y-44216723D02*
X101214286Y-44026247D01*
X101214286Y-44026247D02*
X101214286Y-43883390D01*
X101214286Y-43883390D02*
X101261905Y-43692914D01*
X101261905Y-43692914D02*
X101309524Y-43597676D01*
X101309524Y-43597676D02*
X101404762Y-43502438D01*
X101404762Y-43502438D02*
X101547619Y-43454819D01*
X101547619Y-43454819D02*
X101642857Y-43454819D01*
X101642857Y-43454819D02*
X101785714Y-43502438D01*
X101785714Y-43502438D02*
X101833333Y-43550057D01*
X102785714Y-44454819D02*
X102214286Y-44454819D01*
X102500000Y-44454819D02*
X102500000Y-43454819D01*
X102500000Y-43454819D02*
X102404762Y-43597676D01*
X102404762Y-43597676D02*
X102309524Y-43692914D01*
X102309524Y-43692914D02*
X102214286Y-43740533D01*
X85916667Y-122157200D02*
X86059524Y-122204819D01*
X86059524Y-122204819D02*
X86297619Y-122204819D01*
X86297619Y-122204819D02*
X86392857Y-122157200D01*
X86392857Y-122157200D02*
X86440476Y-122109580D01*
X86440476Y-122109580D02*
X86488095Y-122014342D01*
X86488095Y-122014342D02*
X86488095Y-121919104D01*
X86488095Y-121919104D02*
X86440476Y-121823866D01*
X86440476Y-121823866D02*
X86392857Y-121776247D01*
X86392857Y-121776247D02*
X86297619Y-121728628D01*
X86297619Y-121728628D02*
X86107143Y-121681009D01*
X86107143Y-121681009D02*
X86011905Y-121633390D01*
X86011905Y-121633390D02*
X85964286Y-121585771D01*
X85964286Y-121585771D02*
X85916667Y-121490533D01*
X85916667Y-121490533D02*
X85916667Y-121395295D01*
X85916667Y-121395295D02*
X85964286Y-121300057D01*
X85964286Y-121300057D02*
X86011905Y-121252438D01*
X86011905Y-121252438D02*
X86107143Y-121204819D01*
X86107143Y-121204819D02*
X86345238Y-121204819D01*
X86345238Y-121204819D02*
X86488095Y-121252438D01*
X86821429Y-121204819D02*
X87059524Y-122204819D01*
X87059524Y-122204819D02*
X87250000Y-121490533D01*
X87250000Y-121490533D02*
X87440476Y-122204819D01*
X87440476Y-122204819D02*
X87678572Y-121204819D01*
X87964286Y-121204819D02*
X88583333Y-121204819D01*
X88583333Y-121204819D02*
X88250000Y-121585771D01*
X88250000Y-121585771D02*
X88392857Y-121585771D01*
X88392857Y-121585771D02*
X88488095Y-121633390D01*
X88488095Y-121633390D02*
X88535714Y-121681009D01*
X88535714Y-121681009D02*
X88583333Y-121776247D01*
X88583333Y-121776247D02*
X88583333Y-122014342D01*
X88583333Y-122014342D02*
X88535714Y-122109580D01*
X88535714Y-122109580D02*
X88488095Y-122157200D01*
X88488095Y-122157200D02*
X88392857Y-122204819D01*
X88392857Y-122204819D02*
X88107143Y-122204819D01*
X88107143Y-122204819D02*
X88011905Y-122157200D01*
X88011905Y-122157200D02*
X87964286Y-122109580D01*
%TO.C,SW4*%
D13*
X94350000Y-140350000D02*
X94350000Y-126150000D01*
X94350000Y-126150000D02*
X80150000Y-126150000D01*
X80150000Y-126150000D02*
X80150000Y-140350000D01*
X80150000Y-140350000D02*
X94350000Y-140350000D01*
%TO.C,SW2*%
X94350000Y-101350000D02*
X94350000Y-87150000D01*
X94350000Y-87150000D02*
X80150000Y-87150000D01*
X80150000Y-87150000D02*
X80150000Y-101350000D01*
X80150000Y-101350000D02*
X94350000Y-101350000D01*
%TO.C,SW1*%
X94350000Y-81850000D02*
X94350000Y-67650000D01*
X94350000Y-67650000D02*
X80150000Y-67650000D01*
X80150000Y-67650000D02*
X80150000Y-81850000D01*
X80150000Y-81850000D02*
X94350000Y-81850000D01*
%TO.C,D1*%
X107760000Y-50850000D02*
X102250000Y-50850000D01*
X107760000Y-54150000D02*
X102250000Y-54150000D01*
X107760000Y-54150000D02*
X107760000Y-50850000D01*
%TO.C,J1*%
X99370000Y-75730000D02*
X99370000Y-70540000D01*
X102130000Y-70540000D02*
X99370000Y-70540000D01*
X102130000Y-75730000D02*
X99370000Y-75730000D01*
X102130000Y-75730000D02*
X102130000Y-70540000D01*
X102130000Y-77000000D02*
X102130000Y-78380000D01*
X102130000Y-78380000D02*
X100750000Y-78380000D01*
%TO.C,SW5*%
X97140000Y-86390000D02*
X107360000Y-86390000D01*
X107360000Y-89110000D01*
X97140000Y-89110000D01*
X97140000Y-86390000D01*
%TO.C,SW6*%
X100750000Y-59500000D02*
X100750000Y-64000000D01*
X103250000Y-65250000D02*
X104750000Y-65250000D01*
X104750000Y-58250000D02*
X103250000Y-58250000D01*
X107250000Y-64000000D02*
X107250000Y-59500000D01*
%TO.C,C2*%
X101109420Y-46740000D02*
X101390580Y-46740000D01*
X101109420Y-47760000D02*
X101390580Y-47760000D01*
%TO.C,BT1*%
X102120000Y-97120000D02*
X103500000Y-97120000D01*
X102120000Y-98500000D02*
X102120000Y-97120000D01*
X102120000Y-99770000D02*
X102120000Y-102420000D01*
X102120000Y-99770000D02*
X104880000Y-99770000D01*
X102120000Y-102420000D02*
X104880000Y-102420000D01*
X104880000Y-99770000D02*
X104880000Y-102420000D01*
%TO.C,U1*%
D14*
X79150000Y-62907500D02*
X79150000Y-45762500D01*
X81055000Y-64812500D02*
X95025000Y-64812500D01*
X83545000Y-43857500D02*
X83548728Y-42847228D01*
X84048728Y-42347500D02*
X92044000Y-42347500D01*
X92544000Y-42847500D02*
X92544000Y-43857500D01*
D10*
X95025000Y-43857500D02*
X81055000Y-43857500D01*
D14*
X95025000Y-43857500D02*
X81055000Y-43857500D01*
X96930000Y-62907500D02*
X96930000Y-45762500D01*
X79150000Y-45762500D02*
G75*
G02*
X81055000Y-43857500I1905000J0D01*
G01*
X81055000Y-64812500D02*
G75*
G02*
X79150000Y-62907500I1J1905001D01*
G01*
X83548728Y-42847228D02*
G75*
G02*
X84048728Y-42347528I499972J-272D01*
G01*
X92044000Y-42347500D02*
G75*
G02*
X92544000Y-42847500I-100J-500100D01*
G01*
X95025000Y-43857500D02*
G75*
G02*
X96930000Y-45762500I0J-1905000D01*
G01*
X96930000Y-62907500D02*
G75*
G02*
X95025000Y-64812500I-1905001J1D01*
G01*
D15*
X79442000Y-43998500D02*
G75*
G02*
X78938000Y-43998500I-252000J0D01*
G01*
X78938000Y-43998500D02*
G75*
G02*
X79442000Y-43998500I252000J0D01*
G01*
X80585000Y-44878500D02*
G75*
G02*
X80081000Y-44878500I-252000J0D01*
G01*
X80081000Y-44878500D02*
G75*
G02*
X80585000Y-44878500I252000J0D01*
G01*
%TO.C,C1*%
D13*
X99640580Y-43490000D02*
X99359420Y-43490000D01*
X99640580Y-44510000D02*
X99359420Y-44510000D01*
%TO.C,SW3*%
X94350000Y-120850000D02*
X94350000Y-106650000D01*
X94350000Y-106650000D02*
X80150000Y-106650000D01*
X80150000Y-106650000D02*
X80150000Y-120850000D01*
X80150000Y-120850000D02*
X94350000Y-120850000D01*
%TD*%
M02*
