%TF.GenerationSoftware,KiCad,Pcbnew,10.0.0*%
%TF.CreationDate,2026-07-18T09:54:23+09:00*%
%TF.ProjectId,Wireless_1,57697265-6c65-4737-935f-312e6b696361,rev?*%
%TF.SameCoordinates,Original*%
%TF.FileFunction,Soldermask,Top*%
%TF.FilePolarity,Negative*%
%FSLAX46Y46*%
G04 Gerber Fmt 4.6, Leading zero omitted, Abs format (unit mm)*
G04 Created by KiCad (PCBNEW 10.0.0) date 2026-07-18 09:54:23*
%MOMM*%
%LPD*%
G01*
G04 APERTURE LIST*
G04 Aperture macros list*
%AMRoundRect*
0 Rectangle with rounded corners*
0 $1 Rounding radius*
0 $2 $3 $4 $5 $6 $7 $8 $9 X,Y pos of 4 corners*
0 Add a 4 corners polygon primitive as box body*
4,1,4,$2,$3,$4,$5,$6,$7,$8,$9,$2,$3,0*
0 Add four circle primitives for the rounded corners*
1,1,$1+$1,$2,$3*
1,1,$1+$1,$4,$5*
1,1,$1+$1,$6,$7*
1,1,$1+$1,$8,$9*
0 Add four rect primitives between the rounded corners*
20,1,$1+$1,$2,$3,$4,$5,0*
20,1,$1+$1,$4,$5,$6,$7,0*
20,1,$1+$1,$6,$7,$8,$9,0*
20,1,$1+$1,$8,$9,$2,$3,0*%
G04 Aperture macros list end*
%ADD10C,3.200000*%
%ADD11C,3.050000*%
%ADD12C,4.000000*%
%ADD13C,1.750000*%
%ADD14RoundRect,0.250000X1.000000X0.650000X-1.000000X0.650000X-1.000000X-0.650000X1.000000X-0.650000X0*%
%ADD15R,1.700000X1.700000*%
%ADD16C,1.700000*%
%ADD17R,1.500000X1.500000*%
%ADD18C,1.600000*%
%ADD19C,2.000000*%
%ADD20RoundRect,0.225000X-0.225000X-0.250000X0.225000X-0.250000X0.225000X0.250000X-0.225000X0.250000X0*%
%ADD21RoundRect,0.152400X1.063600X0.609600X-1.063600X0.609600X-1.063600X-0.609600X1.063600X-0.609600X0*%
%ADD22C,1.524000*%
%ADD23RoundRect,0.152400X-1.063600X-0.609600X1.063600X-0.609600X1.063600X0.609600X-1.063600X0.609600X0*%
%ADD24RoundRect,0.225000X0.225000X0.250000X-0.225000X0.250000X-0.225000X-0.250000X0.225000X-0.250000X0*%
G04 APERTURE END LIST*
D10*
%TO.C,REF\u002A\u002A*%
X106750000Y-44000000D03*
%TD*%
D11*
%TO.C,SW4*%
X91060000Y-135790000D03*
X84710000Y-138330000D03*
D12*
X87250000Y-133250000D03*
D13*
X92330000Y-133250000D03*
X82170000Y-133250000D03*
%TD*%
D11*
%TO.C,SW2*%
X91060000Y-96790000D03*
X84710000Y-99330000D03*
D12*
X87250000Y-94250000D03*
D13*
X92330000Y-94250000D03*
X82170000Y-94250000D03*
%TD*%
D11*
%TO.C,SW1*%
X91060000Y-77290000D03*
X84710000Y-79830000D03*
D12*
X87250000Y-74750000D03*
D13*
X92330000Y-74750000D03*
X82170000Y-74750000D03*
%TD*%
D10*
%TO.C,REF\u002A\u002A*%
X106500000Y-152000000D03*
%TD*%
D14*
%TO.C,D1*%
X106250000Y-52500000D03*
X102250000Y-52500000D03*
%TD*%
D15*
%TO.C,J1*%
X100750000Y-77000000D03*
D16*
X100750000Y-74460000D03*
X100750000Y-71920000D03*
%TD*%
D17*
%TO.C,SW5*%
X102250000Y-87750000D03*
D18*
X104750000Y-87750000D03*
X99750000Y-87750000D03*
%TD*%
D19*
%TO.C,SW6*%
X106250000Y-58500000D03*
X106250000Y-65000000D03*
X101750000Y-58500000D03*
X101750000Y-65000000D03*
%TD*%
D20*
%TO.C,C2*%
X100475000Y-47250000D03*
X102025000Y-47250000D03*
%TD*%
D15*
%TO.C,BT1*%
X103500000Y-98500000D03*
D16*
X103500000Y-143500000D03*
%TD*%
D21*
%TO.C,U1*%
X79585000Y-46778500D03*
D22*
X80420000Y-46778500D03*
D21*
X79585000Y-49318500D03*
D22*
X80420000Y-49318500D03*
D21*
X79585000Y-51858500D03*
D22*
X80420000Y-51858500D03*
D21*
X79585000Y-54398500D03*
D22*
X80420000Y-54398500D03*
D21*
X79585000Y-56938500D03*
D22*
X80420000Y-56938500D03*
D21*
X79585000Y-59478500D03*
D22*
X80420000Y-59478500D03*
D21*
X79585000Y-62018500D03*
D22*
X80420000Y-62018500D03*
X95660000Y-62018500D03*
D23*
X96495000Y-62018500D03*
D22*
X95660000Y-59478500D03*
D23*
X96495000Y-59478500D03*
D22*
X95660000Y-56938500D03*
D23*
X96495000Y-56938500D03*
D22*
X95660000Y-54398500D03*
D23*
X96495000Y-54398500D03*
D22*
X95660000Y-51858500D03*
D23*
X96495000Y-51858500D03*
D22*
X95660000Y-49318500D03*
D23*
X96495000Y-49318500D03*
D22*
X95660000Y-46778500D03*
D23*
X96495000Y-46778500D03*
%TD*%
D10*
%TO.C,REF\u002A\u002A*%
X75500000Y-44000000D03*
%TD*%
D24*
%TO.C,C1*%
X100275000Y-44000000D03*
X98725000Y-44000000D03*
%TD*%
D10*
%TO.C,REF\u002A\u002A*%
X76000000Y-152000000D03*
%TD*%
D11*
%TO.C,SW3*%
X91060000Y-116290000D03*
X84710000Y-118830000D03*
D12*
X87250000Y-113750000D03*
D13*
X92330000Y-113750000D03*
X82170000Y-113750000D03*
%TD*%
M02*
