M48
; DRILL file KiCad 10.0.0 date 2026-07-18T09:54:26
; FORMAT={-:-/ absolute / metric / decimal}
; #@! TF.CreationDate,2026-07-18T09:54:26+09:00
; #@! TF.GenerationSoftware,Kicad,Pcbnew,10.0.0
; #@! TF.FileFunction,Plated,1,2,PTH
FMAT,2
METRIC
; #@! TA.AperFunction,Plated,PTH,ViaDrill
T1C0.300
; #@! TA.AperFunction,Plated,PTH,ComponentDrill
T2C0.800
; #@! TA.AperFunction,Plated,PTH,ComponentDrill
T3C0.889
; #@! TA.AperFunction,Plated,PTH,ComponentDrill
T4C1.000
; #@! TA.AperFunction,Plated,PTH,ComponentDrill
T5C1.100
%
G90
G05
T1
X74.325Y-54.5
X74.5Y-138.25
X75.0Y-52.0
X76.0Y-49.5
X76.0Y-97.5
X76.75Y-119.0
X77.0Y-80.0
T2
X99.75Y-87.75
X102.25Y-87.75
X104.75Y-87.75
T3
X80.42Y-46.779
X80.42Y-49.319
X80.42Y-51.858
X80.42Y-54.398
X80.42Y-56.938
X80.42Y-59.478
X80.42Y-62.018
X95.66Y-46.779
X95.66Y-49.319
X95.66Y-51.858
X95.66Y-54.398
X95.66Y-56.938
X95.66Y-59.478
X95.66Y-62.018
T4
X100.75Y-71.92
X100.75Y-74.46
X100.75Y-77.0
X103.5Y-98.5
X103.5Y-143.5
T5
X101.75Y-58.5
X101.75Y-65.0
X106.25Y-58.5
X106.25Y-65.0
M30
